<svg id="Layer_1" data-name="Layer 1" xmlns="http://www.w3.org/2000/svg" viewBox="0 0 1000 1000"><defs><style>.cls-1,.cls-3{fill:#fff;}.cls-1{stroke:#231f20;stroke-miterlimit:10;stroke-width:30px;}.cls-2{fill:#231f20;}</style></defs><circle class="cls-1" cx="500" cy="500" r="447.65"/><path class="cls-2" d="M674,358.29h20.43A166.39,166.39,0,0,1,860.86,524.68v0A166.39,166.39,0,0,1,694.48,691.06H674a0,0,0,0,1,0,0V358.29A0,0,0,0,1,674,358.29Z"/><path class="cls-2" d="M387.21,272.37H597.16A17.85,17.85,0,0,1,615,290.22V303a0,0,0,0,1,0,0H369.36a0,0,0,0,1,0,0V290.22A17.85,17.85,0,0,1,387.21,272.37Z"/><rect class="cls-2" x="384.14" y="310.9" width="214.02" height="66.1"/><circle class="cls-3" cx="491.15" cy="343.95" r="22.97"/><rect class="cls-2" x="357.72" y="385.11" width="309.29" height="24.31"/><rect class="cls-2" x="357.72" y="417.52" width="309.29" height="24.31"/><rect class="cls-2" x="357.72" y="449.94" width="309.29" height="24.31"/><rect class="cls-2" x="357.72" y="482.35" width="309.29" height="24.31"/><rect class="cls-2" x="357.72" y="514.77" width="309.29" height="24.31"/><rect class="cls-2" x="357.72" y="547.18" width="309.29" height="24.31"/><rect class="cls-2" x="357.72" y="579.6" width="309.29" height="24.31"/><rect class="cls-2" x="357.72" y="612.01" width="309.29" height="24.31"/><rect class="cls-2" x="357.72" y="644.43" width="309.29" height="24.31"/><path class="cls-2" d="M370.85,680.15h57a13.12,13.12,0,0,1,13.12,13.12v34.36a0,0,0,0,1,0,0H357.72a0,0,0,0,1,0,0V693.28A13.12,13.12,0,0,1,370.85,680.15Z"/><path class="cls-2" d="M596.92,680.15h57A13.12,13.12,0,0,1,667,693.28v34.36a0,0,0,0,1,0,0H583.8a0,0,0,0,1,0,0V693.28A13.12,13.12,0,0,1,596.92,680.15Z"/><path class="cls-2" d="M334.88,366.92h14.39a0,0,0,0,1,0,0V684.28a0,0,0,0,1,0,0H334.88a14.36,14.36,0,0,1-14.36-14.36V381.28A14.36,14.36,0,0,1,334.88,366.92Z"/><path class="cls-2" d="M297.07,397.26h14.39a0,0,0,0,1,0,0V653.95a0,0,0,0,1,0,0H297.07a14.36,14.36,0,0,1-14.36-14.36v-228A14.36,14.36,0,0,1,297.07,397.26Z"/><path class="cls-2" d="M258.21,479.3H272.6a0,0,0,0,1,0,0v92.6a0,0,0,0,1,0,0H258.21a14.36,14.36,0,0,1-14.36-14.36V493.66A14.36,14.36,0,0,1,258.21,479.3Z"/><path class="cls-2" d="M154.16,499.07h79.18a0,0,0,0,1,0,0V549a0,0,0,0,1,0,0H154.16a15,15,0,0,1-15-15V514.1A15,15,0,0,1,154.16,499.07Z"/></svg>